<svg version="1.2" xmlns="http://www.w3.org/2000/svg" viewBox="0 0 1098 246" width="1098" height="246">
	<title>logo-tagline (1)-svg</title>
	<style>
		.s0 { fill: #866eea } 
		.s1 { fill: #ffcc5a } 
		.s2 { fill: #ff4d84 } 
		.s3 { fill: #ffffff } 
	</style>
	<g id="Layer">
		<g id="Layer">
			<path id="Layer" class="s0" d="m316.9 124.7l-7.1 5.2c-3.8 2.7-4.6 8-1.9 11.7 1.6 2.3 4.2 3.5 6.9 3.5 1.7 0 3.4-0.5 4.9-1.6l5.3-3.8z"/>
			<path id="Layer" class="s0" d="m369.3 97c-2.7-3.7-8-4.6-11.8-1.9l-28.1 20.5 11.8 12.3 26.3-19.1c3.7-2.8 4.5-8 1.8-11.8z"/>
		</g>
		<g id="Layer">
			<path id="Layer" class="s1" d="m322.9 108.9l11.6-8c3.8-2.7 4.8-7.9 2.2-11.8-2.7-3.8-8-4.8-11.8-2.1l-14 9.6z"/>
			<path id="Layer" class="s1" d="m304.4 101.2l-34.4 23.8c-3.8 2.6-4.7 7.9-2.1 11.7 1.7 2.4 4.3 3.6 7 3.6 1.6 0 3.3-0.4 4.7-1.5l32.8-22.6z"/>
		</g>
		<g id="Layer">
			<path id="Layer" class="s2" d="m304.5 89.9l29.5-21.4c3.8-2.8 4.6-8 1.9-11.8-2.8-3.8-8-4.6-11.8-1.9l-31.4 22.8z"/>
			<path id="Layer" class="s2" d="m292 78.1l-15.6 11.4c-3.8 2.7-4.6 8-1.9 11.8 1.6 2.2 4.2 3.4 6.8 3.4 1.8 0 3.5-0.5 5-1.6l13.8-10z"/>
		</g>
	</g>
	<g id="Layer">
		<path id="Layer" class="s3" d="m395.3 133.6c-4.6-2.1-8.1-4.9-10.6-8.6l9.6-7.6c1.6 2.7 3.9 4.9 6.9 6.5 3 1.7 6 2.5 9.2 2.5 3.2 0 5.7-0.5 7.6-1.7 1.9-1.2 2.8-2.9 2.8-5.1q0-2.1-1.2-3.3c-0.7-0.8-2.1-1.5-4.1-2.1q-0.7-0.1-2.7-0.6c-1.4-0.3-3.2-0.7-5.5-1.1q-5.4-1.2-8.1-2.1c-1.9-0.6-3.5-1.4-4.8-2.2-2-1.3-3.5-3-4.4-4.9q-1.5-2.9-1.5-6.8c0-5.1 2-9.4 6.1-12.6q6.1-5 15.6-5c4.7 0 9.2 1 13.3 2.9 4.1 1.9 7.2 4.4 9.2 7.6l-8.6 7.8q-2.4-3.7-6.3-5.8-3.8-2.1-8.4-2.1c-2.6 0-4.7 0.5-6.2 1.6q-2.3 1.7-2.3 4.4c0 1.1 0.3 2.1 1 2.8 0.6 0.7 1.7 1.3 3.2 1.9 0.6 0.2 1.3 0.4 2.1 0.5 0.8 0.2 2.4 0.6 4.7 1.1q6.9 1.5 9.6 2.4c1.7 0.6 3.3 1.3 4.6 2q3.7 2 5.4 5.1c1.2 2.1 1.7 4.5 1.7 7.3q0 8.1-6.5 13.3c-4.3 3.5-9.8 5.2-16.4 5.2-5.4-0.1-10.4-1.1-15-3.3z"/>
		<path id="Layer" class="s3" d="m442.8 59.4h13.2v13.1h-13.2zm0.2 20.5h12.8v55.7h-12.8z"/>
		<path id="Layer" fill-rule="evenodd" class="s3" d="m479.8 134.6c-3.1-1.6-5.8-3.8-8-6.7-2-2.6-3.5-5.6-4.6-9.1q-1.6-5.1-1.6-11 0-5.8 1.6-11c1.1-3.4 2.6-6.4 4.6-9 2.2-2.9 4.9-5.2 8-6.7 3.2-1.5 6.6-2.3 10.4-2.3 3.3 0 6.4 0.6 9.1 1.8 2.7 1.2 5 3 6.9 5.2v-26.4h12.8v76.3h-12.8v-5.9q-2.9 3.4-6.9 5.2c-2.7 1.2-5.8 1.8-9.1 1.8-3.8 0-7.2-0.8-10.4-2.2zm26.7-28.3c0-5-1.2-8.9-3.8-11.8-2.5-3-5.8-4.4-10-4.4-4.4 0-8 1.6-10.5 4.8q-3.7 4.7-3.7 13 0 8.3 3.7 13.1 3.8 4.8 10.5 4.8 6.2 0 10-4.4 3.8-4.4 3.8-11.7z"/>
		<path id="Layer" fill-rule="evenodd" class="s3" d="m544.8 134.6q-5.1-2.1-8.8-6.2c-2.3-2.6-4.1-5.7-5.4-9.1q-1.9-5.2-1.9-11.5c0-3.9 0.7-7.5 1.9-11.1 1.3-3.5 3-6.5 5.3-9.1 2.4-2.9 5.3-5 8.7-6.5q5-2.2 10.7-2.2c7.6 0 13.6 2.5 18 7.6 4.5 5 6.7 11.6 6.7 19.9v4.2h-39.1c0.5 4.8 2.1 8.5 4.8 11.3q4 4.1 10.1 4.1c3.2 0 5.9-0.8 8.2-2.4 2.3-1.6 3.9-3.8 4.7-6.5l11 4.1q-3 7.3-9.3 11.5c-4.2 2.8-9 4.2-14.5 4.2-4-0.1-7.7-0.8-11.1-2.3zm1.7-42q-3.5 3-4.9 8.5h25.6c-0.1-3.5-1.2-6.2-3.3-8.4q-3.2-3.1-8.7-3.1c-3.4 0-6.2 1-8.7 3z"/>
		<path id="Layer" class="s3" d="m594.5 132.9q-3.7-3.5-3.7-11.2v-30.9h-7.8v-10.8h7.8v-16.4h12.5v16.3h11.7v10.9h-11.7v28.8q0 3 1.5 4.2c1 0.9 3 1.3 6 1.3q1.3 0 2.3-0.1c0.6 0 1.6-0.1 2.8-0.2v10.7c-1.2 0.2-2.7 0.4-4.2 0.5-1.6 0.2-3.1 0.2-4.6 0.2-5.9 0.1-10-1.1-12.6-3.3z"/>
		<path id="Layer" class="s3" d="m655.2 79.7q0.8 0 1.9 0.1v12.7q-1.3-0.2-2.3-0.3c-0.7 0-1.5 0-2.3 0q-6.4 0-10.3 3.9c-2.6 2.6-3.9 5.9-3.9 10.2v29.4h-12.7v-55.8h12.7v8.3c1.3-2.6 3.3-4.7 6-6.2 2.7-1.6 5.8-2.3 9.2-2.3 0.6-0.1 1.1 0 1.7 0z"/>
		<path id="Layer" fill-rule="evenodd" class="s3" d="m675.8 134.6q-5.1-2.1-8.8-6.2c-2.4-2.6-4.1-5.7-5.4-9.1q-1.9-5.2-1.9-11.5c0-3.9 0.6-7.5 1.9-11.1 1.3-3.5 3-6.5 5.3-9.1 2.4-2.9 5.3-5 8.6-6.5q5-2.2 10.7-2.2c7.6 0 13.7 2.5 18.1 7.6 4.4 5 6.7 11.6 6.7 19.9v4.2h-39.1c0.5 4.8 2.1 8.5 4.7 11.3q4 4.1 10.2 4.1c3.2 0 5.9-0.8 8.2-2.4 2.3-1.6 3.8-3.8 4.7-6.5l11 4.1q-3 7.3-9.3 11.5c-4.2 2.8-9.1 4.2-14.6 4.2-3.9-0.1-7.6-0.8-11-2.3zm1.7-42q-3.5 3-4.9 8.5h25.6c-0.1-3.5-1.2-6.2-3.3-8.4q-3.2-3.1-8.7-3.1-5.1 0-8.7 3z"/>
		<path id="Layer" class="s3" d="m733.3 59.4v44l21.4-23.5h15.6l-21.1 21.7 22.8 34.1h-14.8l-16.6-25.2-7.4 7.5v17.7h-12.7v-76.3z"/>
	</g>
	<path id="The fastest way to build a moder" fill-rule="evenodd" class="s3" d="m95.7 190.9h-6.3v18.1h-2.6v-18.1h-6.4v-2.5h15.3zm5.3-2.5v7.3c0.9-1.7 2.7-2.4 4.5-2.4 3.5 0 5.2 2.6 5.2 5.8v9.9h-2.5v-9c0-2.8-0.9-4.3-3.2-4.3-2.4 0-4 1.5-4 4.3v9h-2.5v-20.6zm20 4.9c3.4 0 6.4 2.2 6.7 7.7v1.1h-11.1c0.2 3.1 1.8 4.9 4.4 4.9 1.6 0 3.1-1 3.8-2.6l2.7 0.2c-0.9 2.9-3.5 4.7-6.5 4.7-4.2 0-7-3.1-7-8 0-4.9 2.8-8 7-8zm4 6.6c-0.4-3.2-2.2-4.2-4-4.2-2.4 0-3.9 1.5-4.3 4.2zm19.3-11.5h2.4v2.2h-2.4c-1 0-1.7 0.8-1.7 2.1v0.9h3.9v2.2h-3.9v13.2h-2.4v-13.2h-2.1v-2.2h2.1v-0.9c0-2.6 1.3-4.3 4.1-4.3zm11 4.9c3.9 0 6.2 2.3 6.2 6.4v6.2q0 0.9 0.9 0.9h0.6v2.2h-1c-1.6 0-3-0.5-3-2.4-0.6 1.4-2.3 2.7-4.8 2.7-3 0-5.5-1.6-5.5-4.3 0-3.2 2.4-4 5.8-4.7l4.5-0.8c-0.1-2.6-1.3-3.8-3.7-3.8-2 0-3.2 0.9-3.7 2.7l-2.6-0.3c0.6-2.9 3-4.8 6.3-4.8zm-0.7 13.8c2.5 0 4.4-1.7 4.4-5.3v-0.1l-3.6 0.6c-2.2 0.4-4.1 0.5-4.1 2.7 0 1.2 1 2.1 3.3 2.1zm16.6-11.4c-1.7 0-3.1 0.8-3.1 2.2 0 1.6 2 2.2 3.6 2.5 3.5 0.6 6.1 1.6 6.1 4.7 0 3-3.1 4.2-6 4.2-3.7 0-6.4-2-6.7-5.1l2.6-0.2c0.4 1.8 1.8 3 4.1 3 1.4 0 3.4-0.5 3.4-2.1 0-1.8-2.2-2-3.9-2.4-2.8-0.6-5.8-1.4-5.8-4.4 0-3 2.4-4.8 5.9-4.8 3.1 0 5.6 1.9 6.1 4.9l-2.6 0.2c-0.4-1.7-2.1-2.7-3.7-2.7zm13.4-5.6v3.5h4.1v2.2h-4.1v9.1c0 1.3 0.6 1.9 1.8 1.9h2.3v2.2h-2.3c-2.7 0-4.3-1.5-4.3-4.1v-9.1h-2.2v-2.2h2.2v-3.5zm13.2 3.2c3.3 0 6.4 2.2 6.6 7.7l0.1 1.1h-11.1c0.2 3.1 1.8 4.9 4.4 4.9 1.6 0 3.1-1 3.8-2.6l2.6 0.2c-0.9 2.9-3.5 4.7-6.4 4.7-4.3 0-7.1-3.1-7.1-8 0-4.9 2.8-8 7.1-8zm3.9 6.6c-0.4-3.2-2.1-4.2-3.9-4.2-2.4 0-4 1.5-4.4 4.2zm11.6-4.2c-1.7 0-3.1 0.8-3.1 2.2 0 1.6 2 2.2 3.6 2.5 3.5 0.6 6.1 1.6 6.1 4.7 0 3-3.1 4.2-6 4.2-3.7 0-6.4-2-6.7-5.1l2.6-0.2c0.3 1.8 1.8 3 4.1 3 1.4 0 3.4-0.5 3.4-2.1 0-1.8-2.2-2-3.9-2.4-2.8-0.6-5.8-1.4-5.8-4.4 0-3 2.4-4.8 5.9-4.8 3.1 0 5.6 1.9 6.1 4.9l-2.6 0.2c-0.4-1.7-2.1-2.7-3.7-2.7zm13.4-5.6v3.5h4.1v2.2h-4.1v9.1c0 1.3 0.6 1.9 1.8 1.9h2.3v2.2h-2.3c-2.8 0-4.3-1.5-4.3-4.1v-9.1h-2.2v-2.2h2.2v-3.5zm29.3 16.1l3.6-12.6h2.7l-4.7 15.4h-3.2l-3.4-11.6-3.4 11.6h-3.1l-4.7-15.4h2.6l3.7 12.6 3.6-12.6h2.7zm14.3-12.9c4 0 6.2 2.3 6.2 6.4v6.2q0 0.9 0.9 0.9h0.7v2.2h-1.1c-1.6 0-3-0.5-3-2.3-0.6 1.4-2.3 2.7-4.7 2.7-3.1 0-5.6-1.7-5.6-4.4 0-3.2 2.4-4 5.8-4.7l4.5-0.8c0-2.6-1.3-3.8-3.7-3.8-1.9 0-3.2 0.9-3.7 2.7l-2.6-0.2c0.6-3 3-4.9 6.3-4.9zm-0.7 13.9c2.5 0 4.5-1.8 4.5-5.4v-0.1l-3.6 0.6c-2.3 0.4-4.2 0.5-4.2 2.7 0 1.2 1.1 2.2 3.3 2.2zm12.1-13.6l4.5 12.7 4.5-12.7h2.6l-6.2 17.4c-0.6 1.6-1.7 2.4-3.4 2.4h-2v-2.2h1.7c0.7 0 1.2-0.3 1.5-1.1l0.5-1.4h-0.8l-5.6-15.1zm25.8-3.4v3.4h4.1v2.2h-4.1v9.1c0 1.3 0.6 1.9 1.8 1.9h2.2v2.2h-2.2c-2.8 0-4.3-1.5-4.3-4.1v-9.1h-2.2v-2.2h2.2v-3.4zm6.1 11.1c0-4.9 2.8-8 7-8 4.3 0 7.1 3.1 7.1 8 0 4.9-2.8 8.1-7.1 8.1-4.2 0-7-3.2-7-8.1zm7 5.7c2.9 0 4.5-2.1 4.5-5.7 0-3.5-1.6-5.6-4.5-5.6-2.8 0-4.4 2.1-4.4 5.6 0 3.6 1.6 5.7 4.4 5.7zm20.5-18.6v7.2c0.9-1.4 2.7-2.3 4.7-2.3 4 0 6.5 3.1 6.5 8 0 5-2.5 8.1-6.5 8.1-2.1 0-4-1-4.8-2.5l-0.1 2.1h-2.3v-20.6zm4.2 18.6c2.7 0 4.4-2.2 4.4-5.7 0-3.5-1.7-5.7-4.4-5.7-2.7 0-4.4 2.2-4.4 5.7 0 3.5 1.7 5.7 4.4 5.7zm20.1 2v-2.5c-0.8 2-2.6 2.9-4.6 2.9-3.4 0-5.1-2.6-5.1-5.9v-9.9h2.5v9.2c0 2.8 0.9 4.4 3.1 4.4 2.4 0 4-1.6 4-4.4v-9.2h2.5v15.4zm9.1-15.4v15.4h-2.5v-15.4zm-2.6-5.2h2.6v2.8h-2.6zm9.7 0v17.5q0 0.9 0.9 0.9h1.4v2.2h-1.8c-1.8 0-3-1.2-3-3v-17.6zm18.2 20.6h-2.3l-0.1-2.2c-0.8 1.6-2.7 2.5-4.8 2.5-4 0-6.5-3.1-6.5-8 0-4.9 2.5-8 6.5-8 2.1 0 3.9 0.9 4.7 2.3v-7.2h2.5zm-6.7-2c2.7 0 4.4-2.2 4.4-5.7 0-3.5-1.7-5.8-4.4-5.8-2.7 0-4.4 2.3-4.4 5.8 0 3.5 1.7 5.7 4.4 5.7zm24.2-13.7c4 0 6.2 2.3 6.2 6.4v6.2q0 0.9 0.9 0.9h0.7v2.2h-1.1c-1.6 0-3-0.5-3-2.4-0.6 1.4-2.3 2.7-4.7 2.7-3.1 0-5.6-1.6-5.6-4.3 0-3.2 2.4-4 5.8-4.7l4.5-0.9c0-2.5-1.3-3.8-3.7-3.8-1.9 0-3.2 1-3.7 2.7l-2.6-0.2c0.6-2.9 3-4.8 6.3-4.8zm-0.7 13.8c2.5 0 4.4-1.7 4.4-5.3v-0.2l-3.5 0.7c-2.3 0.4-4.2 0.5-4.2 2.7 0 1.1 1.1 2.1 3.3 2.1zm21.3-13.5l0.1 2.6c0.7-1.9 2.3-2.9 4.4-2.9 2.2 0 3.8 1.1 4.5 3.2 0.7-2.1 2.3-3.2 4.7-3.2 3.1 0 4.9 2.1 4.9 5.8v9.9h-2.5v-9.2c0-2.8-1.1-4.3-3-4.3-2.3 0-3.7 1.5-3.7 4.3v9.2h-2.5v-9.2c0-2.7-1.1-4.3-2.9-4.3-2.4 0-3.8 1.6-3.8 4.3v9.2h-2.5v-15.4zm21.8 7.7c0-4.9 2.8-8 7-8 4.3 0 7.1 3.1 7.1 8 0 4.9-2.8 8-7.1 8-4.2 0-7-3.1-7-8zm7 5.7c2.8 0 4.5-2.2 4.5-5.7 0-3.5-1.7-5.7-4.5-5.7-2.8 0-4.4 2.2-4.4 5.7 0 3.5 1.6 5.7 4.4 5.7zm23.5 2h-2.3l-0.1-2.2c-0.8 1.6-2.7 2.5-4.8 2.5-4 0-6.5-3.1-6.5-8 0-4.9 2.5-8 6.5-8 2 0 3.8 0.9 4.7 2.3v-7.2h2.5zm-6.7-2.1c2.7 0 4.4-2.1 4.4-5.6 0-3.5-1.7-5.8-4.4-5.8-2.7 0-4.4 2.3-4.4 5.8 0 3.5 1.7 5.6 4.4 5.6zm17.4-13.6c3.4 0 6.4 2.1 6.7 7.6v1.2h-11.1c0.2 3 1.8 4.8 4.4 4.8 1.6 0 3.1-0.9 3.8-2.5l2.7 0.2c-0.9 2.9-3.5 4.7-6.5 4.7-4.3 0-7-3.1-7-8 0-4.9 2.7-8 7-8zm4 6.6c-0.5-3.2-2.2-4.3-4-4.3-2.4 0-3.9 1.6-4.3 4.3zm8.5-6.3l0.1 2.8c0.5-1.9 1.6-2.8 3.6-2.8h1.5v2.2h-1.5c-2.4 0-3.4 1.4-3.4 4v9.2h-2.5v-15.4zm10.3 0l0.1 2.6c0.7-2 2.5-2.9 4.7-2.9 3.5 0 5.1 2.5 5.1 5.8v9.9h-2.4v-9.2c0-2.8-1-4.3-3.3-4.3-2.4 0-4 1.5-4 4.3v9.2h-2.5v-15.4zm34.5 15.4h-2.2l-0.1-2.2c-0.9 1.6-2.7 2.5-4.9 2.5-4 0-6.5-3.1-6.5-8 0-4.9 2.5-8 6.5-8 2.1 0 3.9 0.9 4.7 2.3v-7.2h2.5zm-6.6-2.1c2.7 0 4.4-2.1 4.4-5.6 0-3.6-1.7-5.8-4.4-5.8-2.7 0-4.4 2.2-4.4 5.8 0 3.5 1.7 5.6 4.4 5.6zm16.9-13.7c3.9 0 6.2 2.4 6.2 6.5v6.1c0 0.7 0.3 1 0.9 1h0.6v2.2h-1c-1.6 0-3-0.5-3-2.4-0.6 1.4-2.3 2.7-4.7 2.7-3.1 0-5.6-1.6-5.6-4.4 0-3.2 2.4-3.9 5.8-4.6l4.5-0.9c-0.1-2.5-1.3-3.8-3.7-3.8-1.9 0-3.2 1-3.7 2.7l-2.6-0.2c0.6-3 3-4.9 6.3-4.9zm-0.7 13.9c2.5 0 4.4-1.7 4.4-5.3v-0.2l-3.6 0.7c-2.2 0.4-4.1 0.5-4.1 2.6 0 1.2 1 2.2 3.3 2.2zm14.3-17v3.5h4.1v2.2h-4.1v9c0 1.3 0.6 2 1.9 2h2.2v2.2h-2.2c-2.8 0-4.4-1.5-4.4-4.2v-9h-2.2v-2.2h2.2v-3.5zm13.1 3.1c4 0 6.2 2.4 6.2 6.5v6.1c0 0.7 0.3 1 1 1h0.6v2.2h-1.1c-1.5 0-2.9-0.5-2.9-2.4-0.7 1.4-2.4 2.7-4.8 2.7-3 0-5.5-1.6-5.5-4.4 0-3.2 2.4-3.9 5.8-4.6l4.4-0.9c0-2.5-1.2-3.8-3.7-3.8-1.9 0-3.2 1-3.6 2.7l-2.7-0.2c0.6-3 3-4.9 6.3-4.9zm-0.7 13.9c2.5 0 4.5-1.7 4.5-5.3v-0.2l-3.6 0.7c-2.3 0.4-4.1 0.5-4.1 2.6 0 1.2 1 2.2 3.2 2.2zm24.2-11.5c-1.7 0-3.1 0.9-3.1 2.3 0 1.5 2 2.1 3.6 2.5 3.5 0.6 6.1 1.6 6.1 4.7 0 2.9-3.1 4.2-6 4.2-3.7 0-6.4-2-6.7-5.2l2.6-0.2c0.4 1.9 1.8 3 4.1 3 1.4 0 3.4-0.4 3.4-2 0-1.8-2.2-2-3.9-2.4-2.8-0.6-5.8-1.4-5.8-4.4 0-3 2.4-4.9 5.9-4.9 3.1 0 5.6 2 6.1 5l-2.6 0.2c-0.3-1.8-2.1-2.8-3.7-2.8zm13.4-5.5v3.5h4.1v2.2h-4.1v9c0 1.3 0.6 2 1.8 2h2.3v2.2h-2.3c-2.7 0-4.3-1.5-4.3-4.2v-9h-2.2v-2.2h2.2v-3.5zm13.1 3.1c4 0 6.2 2.4 6.2 6.5v6.1c0 0.7 0.3 1 1 1h0.6v2.2h-1.1c-1.6 0-2.9-0.5-2.9-2.4-0.7 1.4-2.4 2.7-4.8 2.7-3 0-5.5-1.6-5.5-4.4 0-3.2 2.3-3.9 5.8-4.6l4.4-0.9c0-2.5-1.2-3.8-3.7-3.8-1.9 0-3.2 1-3.6 2.7l-2.7-0.2c0.6-3 3-4.9 6.3-4.9zm-0.7 13.9c2.5 0 4.5-1.7 4.5-5.3v-0.2l-3.6 0.7c-2.3 0.4-4.1 0.5-4.1 2.6 0 1.2 1 2.2 3.2 2.2zm17.6-11.5c-2.8 0-4.4 2.1-4.4 5.7 0 3.5 1.6 5.6 4.4 5.6 1.9 0 3.6-1.2 3.9-3.4l2.7 0.2c-0.5 3.5-3.3 5.6-6.6 5.6-4.2 0-7-3.1-7-8 0-4.9 2.8-8.1 7-8.1 3.2 0 6 2.1 6.4 5.4l-2.6 0.2c-0.3-2-1.9-3.2-3.8-3.2zm12.3-7.2v13.4l7.3-8.2h3.4l-6 6.5 6.3 8.9h-3.1l-4.9-7.2-3 3.3v3.9h-2.5v-20.6zm31.6 20.6v-2.6c-0.8 2-2.6 2.9-4.6 2.9-3.4 0-5.1-2.6-5.1-5.8v-9.9h2.5v9.2c0 2.8 0.9 4.3 3.1 4.3 2.4 0 4-1.5 4-4.3v-9.2h2.5v15.4zm12.1-13.4c-1.7 0-3 0.9-3 2.3 0 1.5 2 2.1 3.6 2.5 3.5 0.6 6.1 1.6 6.1 4.7 0 2.9-3.2 4.2-6.1 4.2-3.6 0-6.4-2-6.6-5.2l2.6-0.2c0.3 1.9 1.8 3 4 3 1.5 0 3.4-0.4 3.4-2 0-1.8-2.1-2-3.8-2.4-2.8-0.6-5.8-1.4-5.8-4.4 0-3 2.3-4.9 5.9-4.9 3 0 5.6 2 6.1 5l-2.6 0.2c-0.4-1.8-2.1-2.8-3.8-2.8zm12.2-2v15.4h-2.4v-15.4zm-2.4-5.2h2.6v2.8h-2.6zm9 5.2l0.1 2.6c0.8-2 2.6-3 4.7-3 3.5 0 5.2 2.6 5.2 5.9v9.9h-2.5v-9.2c0-2.9-0.9-4.4-3.2-4.4-2.5 0-4.1 1.5-4.1 4.4v9.2h-2.5v-15.4zm13.2 7.1c0-4.4 2.8-7.5 6.8-7.5 2 0 3.8 1.1 4.5 2.8v-2.4h2.4v13.8c0 4.1-2.8 6.3-6.9 6.3-3.2 0-5.7-1.8-6.4-4.5l2.6-0.2c0.6 1.4 2 2.3 3.8 2.3 2.7 0 4.4-1.2 4.4-3.3v-2.5c-0.8 1.6-2.5 2.6-4.4 2.6-4 0-6.8-3-6.8-7.4zm6.9 5.1c2.6 0 4.3-2 4.3-5.1 0-3.1-1.6-5.1-4.3-5.1-2.6 0-4.3 2-4.3 5.1 0 3.1 1.7 5.1 4.3 5.1zm17.7-4.5c0-4.9 2.8-8.1 7-8.1 4.3 0 7.1 3.2 7.1 8.1 0 4.9-2.8 8-7.1 8-4.2 0-7-3.1-7-8zm7 5.6c2.8 0 4.5-2.1 4.5-5.6 0-3.6-1.7-5.7-4.5-5.7-2.8 0-4.4 2.1-4.4 5.7 0 3.5 1.6 5.6 4.4 5.6zm10.6-13.3h2.3l0.1 2.2c0.8-1.6 2.4-2.6 4.7-2.6 4.6 0 6.6 3.9 6.6 8.1 0 4.2-2 8-6.6 8-2.2 0-3.7-0.8-4.6-2.4v6.4h-2.5zm6.6 13.3c3.2 0 4.4-2.8 4.4-5.7 0-2.8-1.2-5.6-4.4-5.6-3.1 0-4.4 2.8-4.4 5.6 0 2.9 1.3 5.7 4.4 5.7zm16.9-13.7c3.3 0 6.4 2.2 6.6 7.7l0.1 1.1h-11.1c0.2 3.1 1.8 4.9 4.4 4.9 1.6 0 3.1-0.9 3.8-2.5l2.6 0.2c-0.9 2.9-3.5 4.7-6.4 4.7-4.3 0-7.1-3.2-7.1-8.1 0-4.9 2.8-8 7.1-8zm4 6.6c-0.5-3.2-2.2-4.2-4-4.2-2.4 0-4 1.6-4.4 4.2zm8.4-6.2l0.1 2.6c0.8-2.1 2.6-3 4.7-3 3.5 0 5.2 2.6 5.2 5.8v9.9h-2.5v-9.2c0-2.8-0.9-4.3-3.2-4.3-2.5 0-4.1 1.5-4.1 4.3v9.2h-2.5v-15.3zm23.3 5.7v2.3h-9.7v-2.3zm8.6-3.7c-1.6 0-3 0.8-3 2.3 0 1.5 2 2.1 3.6 2.4 3.5 0.7 6.1 1.6 6.1 4.7 0 3-3.1 4.3-6 4.3-3.7 0-6.5-2-6.7-5.2l2.6-0.2c0.3 1.8 1.8 3 4.1 3 1.4 0 3.4-0.5 3.4-2 0-1.9-2.2-2-3.9-2.4-2.8-0.7-5.8-1.5-5.8-4.5 0-2.9 2.4-4.8 5.9-4.8 3.1 0 5.6 2 6.1 4.9l-2.6 0.2c-0.4-1.7-2.1-2.7-3.8-2.7zm9.4 5.6c0-4.9 2.8-8 7.1-8 4.2 0 7 3.1 7 8 0 4.9-2.8 8.1-7 8.1-4.3 0-7.1-3.2-7.1-8.1zm7.1 5.7c2.8 0 4.4-2.1 4.4-5.7 0-3.5-1.6-5.6-4.4-5.6-2.9 0-4.5 2.1-4.5 5.6 0 3.6 1.6 5.7 4.5 5.7zm20.1 2v-2.5c-0.8 2-2.6 2.9-4.6 2.9-3.4 0-5.1-2.6-5.1-5.8v-9.9h2.5v9.1c0 2.9 0.9 4.4 3.1 4.4 2.4 0 4-1.5 4-4.4v-9.1h2.5v15.3zm9.2-15.3l0.1 2.7c0.5-1.9 1.6-2.7 3.6-2.7h1.5v2.2h-1.5c-2.3 0-3.4 1.3-3.4 4v9.1h-2.5v-15.3zm13.9 2c-2.9 0-4.5 2.1-4.5 5.6 0 3.6 1.6 5.7 4.5 5.7 1.9 0 3.5-1.2 3.9-3.4l2.6 0.2c-0.5 3.4-3.3 5.6-6.5 5.6-4.3 0-7.1-3.2-7.1-8.1 0-4.9 2.8-8 7.1-8 3.1 0 6 2 6.4 5.4l-2.6 0.1c-0.4-1.9-2-3.1-3.8-3.1zm16-2.4c3.4 0 6.4 2.2 6.7 7.7v1.1h-11.1c0.2 3.1 1.8 4.9 4.4 4.9 1.6 0 3.1-0.9 3.8-2.5l2.7 0.2c-0.9 2.9-3.5 4.7-6.5 4.7-4.3 0-7.1-3.2-7.1-8.1 0-4.9 2.8-8 7.1-8zm4 6.6c-0.5-3.2-2.2-4.2-4-4.2-2.4 0-4 1.6-4.4 4.2zm17.6-9.7v3.5h4.1v2.2h-4.1v9c0 1.3 0.6 1.9 1.8 1.9h2.2v2.2h-2.2c-2.8 0-4.3-1.4-4.3-4.1v-9h-2.3v-2.2h2.3v-3.5zm6.1 11.1c0-4.9 2.7-8 7-8 4.3 0 7.1 3.1 7.1 8 0 4.9-2.8 8.1-7.1 8.1-4.3 0-7-3.2-7-8.1zm7 5.7c2.8 0 4.4-2.1 4.4-5.7 0-3.5-1.6-5.6-4.4-5.6-2.8 0-4.4 2.1-4.4 5.6 0 3.6 1.6 5.7 4.4 5.7zm9.8-5.7c0-4.9 2.8-8 7-8 4.3 0 7.1 3.1 7.1 8 0 4.9-2.8 8.1-7.1 8.1-4.2 0-7-3.2-7-8.1zm7 5.7c2.8 0 4.5-2.1 4.5-5.7 0-3.5-1.7-5.6-4.5-5.6-2.8 0-4.4 2.1-4.4 5.6 0 3.6 1.6 5.7 4.4 5.7zm13.3-18.6v17.5c0 0.6 0.2 0.9 0.9 0.9h1.3v2.2h-1.7c-1.8 0-3-1.2-3-3v-17.6zm10.5 7.3c-1.7 0-3.1 0.8-3.1 2.3 0 1.5 2 2.1 3.7 2.4 3.4 0.7 6 1.6 6 4.7 0 3-3.1 4.3-6 4.3-3.6 0-6.4-2-6.7-5.2l2.7-0.2c0.3 1.8 1.7 3 4 3 1.5 0 3.4-0.5 3.4-2 0-1.9-2.1-2-3.9-2.4-2.8-0.7-5.8-1.5-5.8-4.5 0-2.9 2.4-4.8 5.9-4.8 3.1 0 5.6 2 6.1 4.9l-2.6 0.2c-0.3-1.7-2-2.7-3.7-2.7z"/>
</svg>