<svg version="1.2" xmlns="http://www.w3.org/2000/svg" viewBox="0 0 1098 246" width="1098" height="246">
	<title>logo-0</title>
	<style>
		.s0 { fill: #866eea } 
		.s1 { fill: #ffcc5a } 
		.s2 { fill: #ff4d84 } 
		.s3 { fill: #000000 } 
	</style>
	<g id="Layer">
		<g id="Layer">
			<path id="Layer" class="s0" d="m316.9 124.7l-7.1 5.2c-3.8 2.7-4.6 8-1.9 11.7 1.6 2.3 4.2 3.5 6.9 3.5 1.7 0 3.4-0.5 4.9-1.6l5.3-3.8z"/>
			<path id="Layer" class="s0" d="m369.3 97c-2.7-3.7-8-4.6-11.8-1.9l-28.1 20.5 11.8 12.3 26.3-19.1c3.7-2.8 4.5-8 1.8-11.8z"/>
		</g>
		<g id="Layer">
			<path id="Layer" class="s1" d="m322.9 108.9l11.6-8c3.8-2.7 4.8-7.9 2.2-11.8-2.7-3.8-8-4.8-11.8-2.1l-14 9.6z"/>
			<path id="Layer" class="s1" d="m304.4 101.2l-34.4 23.8c-3.8 2.6-4.7 7.9-2.1 11.7 1.7 2.4 4.3 3.6 7 3.6 1.6 0 3.3-0.4 4.7-1.5l32.8-22.6z"/>
		</g>
		<g id="Layer">
			<path id="Layer" class="s2" d="m304.5 89.9l29.5-21.4c3.8-2.8 4.6-8 1.9-11.8-2.8-3.8-8-4.6-11.8-1.9l-31.4 22.8z"/>
			<path id="Layer" class="s2" d="m292 78.1l-15.6 11.4c-3.8 2.7-4.6 8-1.9 11.8 1.6 2.2 4.2 3.4 6.8 3.4 1.8 0 3.5-0.5 5-1.6l13.8-10z"/>
		</g>
	</g>
	<g id="Layer">
		<path id="Layer" class="s3" d="m395.3 133.6c-4.6-2.1-8.1-4.9-10.6-8.6l9.6-7.6c1.6 2.7 3.9 4.9 6.9 6.5 3 1.7 6 2.5 9.2 2.5 3.2 0 5.7-0.5 7.6-1.7 1.9-1.2 2.8-2.9 2.8-5.1q0-2.1-1.2-3.3c-0.7-0.8-2.1-1.5-4.1-2.1-0.5-0.1-1.4-0.3-2.7-0.6-1.4-0.3-3.2-0.7-5.5-1.1-3.6-0.8-6.3-1.5-8.1-2.1-1.9-0.6-3.5-1.4-4.8-2.2-2-1.3-3.5-3-4.4-4.9q-1.5-2.9-1.5-6.8c0-5.1 2-9.4 6.1-12.6q6.1-5 15.6-5c4.7 0 9.2 1 13.3 2.9 4.1 1.9 7.2 4.4 9.2 7.6l-8.6 7.8q-2.4-3.7-6.3-5.8-3.8-2.1-8.4-2.1c-2.6 0-4.7 0.5-6.2 1.6q-2.3 1.7-2.3 4.4c0 1.1 0.3 2.1 1 2.8 0.6 0.7 1.7 1.3 3.2 1.9 0.6 0.2 1.3 0.4 2.1 0.5 0.8 0.2 2.4 0.6 4.7 1.1 4.6 1 7.8 1.8 9.6 2.4 1.7 0.6 3.3 1.3 4.6 2q3.7 2 5.4 5.1c1.2 2.1 1.7 4.5 1.7 7.3q0 8.1-6.5 13.3c-4.3 3.5-9.8 5.2-16.4 5.2-5.4-0.1-10.4-1.1-15-3.3z"/>
		<path id="Layer" class="s3" d="m442.8 59.4h13.2v13.1h-13.2zm0.2 20.5h12.8v55.7h-12.8z"/>
		<path id="Layer" fill-rule="evenodd" class="s3" d="m479.8 134.6c-3.1-1.6-5.8-3.8-8-6.7-2-2.6-3.5-5.6-4.6-9.1q-1.6-5.1-1.6-11 0-5.8 1.6-11c1.1-3.4 2.6-6.4 4.6-9 2.2-2.9 4.9-5.2 8-6.7 3.2-1.5 6.6-2.3 10.4-2.3 3.3 0 6.4 0.6 9.1 1.8 2.7 1.2 5 3 6.9 5.2v-26.4h12.8v76.3h-12.8v-5.9q-2.9 3.4-6.9 5.2c-2.7 1.2-5.8 1.8-9.1 1.8-3.8 0-7.2-0.8-10.4-2.2zm26.7-28.3c0-5-1.2-8.9-3.8-11.8-2.5-3-5.8-4.4-10-4.4-4.4 0-8 1.6-10.5 4.8q-3.7 4.7-3.7 13 0 8.3 3.7 13.1 3.8 4.8 10.5 4.8 6.2 0 10-4.4 3.8-4.4 3.8-11.7z"/>
		<path id="Layer" fill-rule="evenodd" class="s3" d="m544.8 134.6q-5.1-2.1-8.8-6.2c-2.3-2.6-4.1-5.7-5.4-9.1q-1.9-5.2-1.9-11.5c0-3.9 0.7-7.5 1.9-11.1 1.3-3.5 3-6.5 5.3-9.1 2.4-2.9 5.3-5 8.7-6.5q5-2.2 10.7-2.2c7.6 0 13.6 2.5 18 7.6 4.5 5 6.7 11.6 6.7 19.9v4.2h-39.1c0.5 4.8 2.1 8.5 4.8 11.3q4 4.1 10.1 4.1c3.2 0 5.9-0.8 8.2-2.4 2.3-1.6 3.9-3.8 4.7-6.5l11 4.1q-3 7.3-9.3 11.5c-4.2 2.8-9 4.2-14.5 4.2-4-0.1-7.7-0.8-11.1-2.3zm1.7-42q-3.5 3-4.9 8.5h25.6c-0.1-3.5-1.2-6.2-3.3-8.4q-3.2-3.1-8.7-3.1c-3.4 0-6.2 1-8.7 3z"/>
		<path id="Layer" class="s3" d="m594.5 132.9q-3.7-3.5-3.7-11.2v-30.9h-7.8v-10.8h7.8v-16.4h12.5v16.3h11.7v10.9h-11.7v28.8c0 2 0.5 3.4 1.5 4.2 1 0.9 3 1.3 6 1.3q1.3 0 2.3-0.1c0.6 0 1.6-0.1 2.8-0.2v10.7c-1.2 0.2-2.7 0.4-4.2 0.5-1.6 0.2-3.1 0.2-4.6 0.2-5.9 0.1-10-1.1-12.6-3.3z"/>
		<path id="Layer" class="s3" d="m655.2 79.7q0.8 0 1.9 0.1v12.7q-1.3-0.2-2.3-0.3c-0.7 0-1.5 0-2.3 0q-6.4 0-10.3 3.9c-2.6 2.6-3.9 5.9-3.9 10.2v29.4h-12.7v-55.8h12.7v8.3c1.3-2.6 3.3-4.7 6-6.2 2.7-1.6 5.8-2.3 9.2-2.3 0.6-0.1 1.1 0 1.7 0z"/>
		<path id="Layer" fill-rule="evenodd" class="s3" d="m675.8 134.6q-5.1-2.1-8.8-6.2c-2.4-2.6-4.1-5.7-5.4-9.1q-1.9-5.2-1.9-11.5c0-3.9 0.6-7.5 1.9-11.1 1.3-3.5 3-6.5 5.3-9.1 2.4-2.9 5.3-5 8.6-6.5q5-2.2 10.7-2.2c7.6 0 13.7 2.5 18.1 7.6 4.4 5 6.7 11.6 6.7 19.9v4.2h-39.1c0.5 4.8 2.1 8.5 4.7 11.3q4 4.1 10.2 4.1c3.2 0 5.9-0.8 8.2-2.4 2.3-1.6 3.8-3.8 4.7-6.5l11 4.1q-3 7.3-9.3 11.5c-4.2 2.8-9.1 4.2-14.6 4.2-3.9-0.1-7.6-0.8-11-2.3zm1.7-42q-3.5 3-4.9 8.5h25.6c-0.1-3.5-1.2-6.2-3.3-8.4q-3.2-3.1-8.7-3.1-5.1 0-8.7 3z"/>
		<path id="Layer" class="s3" d="m733.3 59.4v44l21.4-23.5h15.6l-21.1 21.7 22.8 34.1h-14.8l-16.6-25.2-7.4 7.5v17.7h-12.7v-76.3z"/>
	</g>
	<path id="The fastest way to build a moder" class="s3" aria-label="The fastest way to build a modern data stack using open-source tools"  d="m95.7 188.4h-15.3v2.5h6.4v18.1h2.6v-18.1h6.3zm2.8 0v20.6h2.5v-9c0-2.8 1.6-4.3 4-4.3 2.3 0 3.2 1.5 3.2 4.3v9h2.5v-9.9c0-3.2-1.7-5.8-5.2-5.8-1.8 0-3.6 0.7-4.5 2.4v-7.3zm15.5 12.9c0 4.9 2.8 8 7 8 3 0 5.6-1.8 6.5-4.7l-2.7-0.2c-0.7 1.6-2.2 2.6-3.8 2.6-2.6 0-4.2-1.8-4.4-4.9h11.1v-1.1c-0.3-5.5-3.3-7.7-6.7-7.7-4.2 0-7 3.1-7 8zm2.7-1.4c0.4-2.7 1.9-4.2 4.3-4.2 1.8 0 3.6 1 4 4.2zm23.5-7.2v0.9h-2.1v2.2h2.1v13.2h2.4v-13.2h3.9v-2.2h-3.9v-0.9c0-1.3 0.7-2.1 1.7-2.1h2.4v-2.2h-2.4c-2.8 0-4.1 1.7-4.1 4.3zm8.8 5.4l2.6 0.3c0.5-1.8 1.7-2.7 3.7-2.7 2.4 0 3.6 1.2 3.7 3.8l-4.5 0.8c-3.4 0.7-5.8 1.5-5.8 4.7 0 2.7 2.5 4.3 5.5 4.3 2.5 0 4.2-1.3 4.8-2.7 0 1.9 1.4 2.4 3 2.4h1v-2.2h-0.6c-0.6 0-0.9-0.3-0.9-0.9v-6.2c0-4.1-2.3-6.4-6.2-6.4-3.3 0-5.7 1.9-6.3 4.8zm2.3 6.9c0-2.2 1.9-2.3 4.1-2.7l3.6-0.6v0.1c0 3.6-1.9 5.3-4.4 5.3-2.3 0-3.3-0.9-3.3-2.1zm23.6-6.6l2.6-0.2c-0.5-3-3-4.9-6.1-4.9-3.5 0-5.9 1.8-5.9 4.8 0 3 3 3.8 5.8 4.4 1.7 0.4 3.9 0.6 3.9 2.4 0 1.6-2 2.1-3.4 2.1-2.3 0-3.7-1.2-4.1-3l-2.6 0.2c0.3 3.1 3 5.1 6.7 5.1 2.9 0 6-1.2 6-4.2 0-3.1-2.6-4.1-6.1-4.7-1.6-0.3-3.6-0.9-3.6-2.5 0-1.4 1.4-2.2 3.1-2.2 1.6 0 3.3 1 3.7 2.7zm7.2-8.3v3.5h-2.2v2.2h2.2v9.1c0 2.6 1.6 4.1 4.3 4.1h2.3v-2.2h-2.3c-1.2 0-1.8-0.6-1.8-1.9v-9.1h4.1v-2.2h-4.1v-3.5zm8.6 11.2c0 4.9 2.8 8 7.1 8 2.9 0 5.5-1.8 6.4-4.7l-2.6-0.2c-0.7 1.6-2.2 2.6-3.8 2.6-2.6 0-4.2-1.8-4.4-4.9h11.1l-0.1-1.1c-0.2-5.5-3.3-7.7-6.6-7.7-4.3 0-7.1 3.1-7.1 8zm2.7-1.4c0.4-2.7 2-4.2 4.4-4.2 1.8 0 3.5 1 3.9 4.2zm23.6-1.5l2.6-0.2c-0.5-3-3-4.9-6.1-4.9-3.5 0-5.9 1.8-5.9 4.8 0 3 3 3.8 5.8 4.4 1.7 0.4 3.9 0.6 3.9 2.4 0 1.6-2 2.1-3.4 2.1-2.3 0-3.8-1.2-4.1-3l-2.6 0.2c0.3 3.1 3 5.1 6.7 5.1 2.9 0 6-1.2 6-4.2 0-3.1-2.6-4.1-6.1-4.7-1.6-0.3-3.6-0.9-3.6-2.5 0-1.4 1.4-2.2 3.1-2.2 1.6 0 3.3 1 3.7 2.7zm7.2-8.3v3.5h-2.2v2.2h2.2v9.1c0 2.6 1.5 4.1 4.3 4.1h2.3v-2.2h-2.3c-1.2 0-1.8-0.6-1.8-1.9v-9.1h4.1v-2.2h-4.1v-3.5zm28.2 3.5h-2.7l-3.6 12.6-3.7-12.6h-2.6l4.7 15.4h3.1l3.4-11.6 3.4 11.6h3.2l4.7-15.4h-2.7l-3.6 12.6zm11.6 4.6l2.6 0.2c0.5-1.8 1.8-2.7 3.7-2.7 2.4 0 3.7 1.2 3.7 3.8l-4.5 0.8c-3.4 0.7-5.8 1.5-5.8 4.7 0 2.7 2.5 4.4 5.6 4.4 2.4 0 4.1-1.3 4.7-2.7 0 1.8 1.4 2.3 3 2.3h1.1v-2.2h-0.7c-0.6 0-0.9-0.3-0.9-0.9v-6.2c0-4.1-2.2-6.4-6.2-6.4-3.3 0-5.7 1.9-6.3 4.9zm2.3 6.8c0-2.2 1.9-2.3 4.2-2.7l3.6-0.6v0.1c0 3.6-2 5.4-4.5 5.4-2.2 0-3.3-1-3.3-2.2zm12.7-11.4l5.6 15.1h0.8l-0.5 1.4c-0.3 0.8-0.8 1.1-1.5 1.1h-1.7v2.2h2c1.7 0 2.8-0.8 3.4-2.4l6.2-17.4h-2.6l-4.5 12.7-4.5-12.7zm26-3.4v3.4h-2.2v2.2h2.2v9.1c0 2.6 1.5 4.1 4.3 4.1h2.2v-2.2h-2.2c-1.2 0-1.8-0.6-1.8-1.9v-9.1h4.1v-2.2h-4.1v-3.4zm15.6 19.2c4.3 0 7.1-3.2 7.1-8.1 0-4.9-2.8-8-7.1-8-4.2 0-7 3.1-7 8 0 4.9 2.8 8.1 7 8.1zm-4.4-8.1c0-3.5 1.6-5.6 4.4-5.6 2.9 0 4.5 2.1 4.5 5.6 0 3.6-1.6 5.7-4.5 5.7-2.8 0-4.4-2.1-4.4-5.7zm22.4-12.9v20.6h2.3l0.1-2.1c0.8 1.5 2.7 2.5 4.8 2.5 4 0 6.5-3.1 6.5-8.1 0-4.9-2.5-8-6.5-8-2 0-3.8 0.9-4.7 2.3v-7.2zm2.3 12.9c0-3.5 1.7-5.7 4.4-5.7 2.7 0 4.4 2.2 4.4 5.7 0 3.5-1.7 5.7-4.4 5.7-2.7 0-4.4-2.2-4.4-5.7zm26.9 7.7v-15.4h-2.5v9.2c0 2.8-1.6 4.4-4 4.4-2.2 0-3.1-1.6-3.1-4.4v-9.2h-2.5v9.9c0 3.3 1.7 5.9 5.1 5.9 2 0 3.8-0.9 4.6-2.9v2.5zm4.2-15.4v15.4h2.5v-15.4zm-0.1-2.4h2.6v-2.8h-2.6zm7.2-2.8v17.6c0 1.8 1.2 3 3 3h1.8v-2.2h-1.4c-0.6 0-0.9-0.3-0.9-0.9v-17.5zm20.7 0h-2.5v7.2c-0.8-1.4-2.6-2.3-4.7-2.3-4 0-6.5 3.1-6.5 8 0 4.9 2.5 8 6.5 8 2.1 0 4-0.9 4.8-2.5l0.1 2.2h2.3zm-11.1 12.9c0-3.5 1.7-5.8 4.4-5.8 2.7 0 4.4 2.3 4.4 5.8 0 3.5-1.7 5.7-4.4 5.7-2.7 0-4.4-2.2-4.4-5.7zm22.3-3.2l2.6 0.2c0.5-1.7 1.8-2.7 3.7-2.7 2.4 0 3.7 1.3 3.7 3.8l-4.5 0.9c-3.4 0.7-5.8 1.5-5.8 4.7 0 2.7 2.5 4.3 5.6 4.3 2.4 0 4.1-1.3 4.7-2.7 0 1.9 1.4 2.4 3 2.4h1.1v-2.2h-0.7c-0.6 0-0.9-0.3-0.9-0.9v-6.2c0-4.1-2.2-6.4-6.2-6.4-3.3 0-5.7 1.9-6.3 4.8zm2.3 6.9c0-2.2 1.9-2.3 4.2-2.7l3.5-0.7v0.2c0 3.6-1.9 5.3-4.4 5.3-2.2 0-3.3-1-3.3-2.1zm22.3-11.4v15.4h2.5v-9.2c0-2.7 1.4-4.3 3.8-4.3 1.8 0 2.9 1.6 2.9 4.3v9.2h2.5v-9.2c0-2.8 1.4-4.3 3.7-4.3 1.9 0 3 1.5 3 4.3v9.2h2.5v-9.9c0-3.7-1.8-5.8-4.9-5.8-2.4 0-4 1.1-4.7 3.2-0.7-2.1-2.3-3.2-4.5-3.2-2.1 0-3.7 1-4.4 2.9l-0.1-2.6zm31.1 15.7c4.3 0 7.1-3.1 7.1-8 0-4.9-2.8-8-7.1-8-4.2 0-7 3.1-7 8 0 4.9 2.8 8 7 8zm-4.4-8c0-3.5 1.6-5.7 4.4-5.7 2.8 0 4.5 2.2 4.5 5.7 0 3.5-1.7 5.7-4.5 5.7-2.8 0-4.4-2.2-4.4-5.7zm27.9-12.9h-2.5v7.2c-0.9-1.4-2.7-2.3-4.7-2.3-4 0-6.5 3.1-6.5 8 0 4.9 2.5 8 6.5 8 2.1 0 4-0.9 4.8-2.5l0.1 2.2h2.3zm-11.1 12.9c0-3.5 1.7-5.8 4.4-5.8 2.7 0 4.4 2.3 4.4 5.8 0 3.5-1.7 5.6-4.4 5.6-2.7 0-4.4-2.1-4.4-5.6zm14.8 0c0 4.9 2.7 8 7 8 3 0 5.6-1.8 6.5-4.7l-2.7-0.2c-0.7 1.6-2.2 2.5-3.8 2.5-2.6 0-4.2-1.8-4.4-4.8h11.1v-1.2c-0.3-5.5-3.3-7.6-6.7-7.6-4.3 0-7 3.1-7 8zm2.7-1.4c0.4-2.7 1.9-4.3 4.3-4.3 1.8 0 3.5 1.1 4 4.3zm14.6-6.3v15.4h2.5v-9.2c0-2.6 1-4 3.4-4h1.5v-2.2h-1.5c-2 0-3.1 0.9-3.6 2.8l-0.1-2.8zm10.2 0v15.4h2.5v-9.2c0-2.8 1.6-4.3 4-4.3 2.3 0 3.3 1.5 3.3 4.3v9.2h2.4v-9.9c0-3.3-1.6-5.8-5.1-5.8-2.2 0-4 0.9-4.7 2.9l-0.1-2.6zm36.8-5.2h-2.5v7.2c-0.8-1.4-2.6-2.3-4.7-2.3-4 0-6.5 3.1-6.5 8 0 4.9 2.5 8 6.5 8 2.2 0 4-0.9 4.9-2.5l0.1 2.2h2.2zm-11 12.9c0-3.6 1.7-5.8 4.4-5.8 2.7 0 4.4 2.2 4.4 5.8 0 3.5-1.7 5.6-4.4 5.6-2.7 0-4.4-2.1-4.4-5.6zm15-3.2l2.6 0.2c0.5-1.7 1.8-2.7 3.7-2.7 2.4 0 3.6 1.3 3.7 3.8l-4.5 0.9c-3.4 0.7-5.8 1.4-5.8 4.6 0 2.8 2.5 4.4 5.6 4.4 2.4 0 4.1-1.3 4.7-2.7 0 1.9 1.4 2.4 3 2.4h1v-2.2h-0.6c-0.6 0-0.9-0.3-0.9-1v-6.1c0-4.1-2.3-6.5-6.2-6.5-3.3 0-5.7 1.9-6.3 4.9zm2.3 6.8c0-2.1 1.9-2.2 4.1-2.6l3.6-0.7v0.2c0 3.6-1.9 5.3-4.4 5.3-2.3 0-3.3-1-3.3-2.2zm15.1-14.8v3.5h-2.2v2.2h2.2v9c0 2.7 1.6 4.2 4.4 4.2h2.2v-2.2h-2.2c-1.3 0-1.9-0.7-1.9-2v-9h4.1v-2.2h-4.1v-3.5zm9.3 8l2.7 0.2c0.4-1.7 1.7-2.7 3.6-2.7 2.5 0 3.7 1.3 3.7 3.8l-4.4 0.9c-3.4 0.7-5.8 1.4-5.8 4.6 0 2.8 2.5 4.4 5.5 4.4 2.4 0 4.1-1.3 4.8-2.7 0 1.9 1.4 2.4 2.9 2.4h1.1v-2.2h-0.6c-0.7 0-1-0.3-1-1v-6.1c0-4.1-2.2-6.5-6.2-6.5-3.3 0-5.7 1.9-6.3 4.9zm2.4 6.8c0-2.1 1.8-2.2 4.1-2.6l3.6-0.7v0.2c0 3.6-2 5.3-4.5 5.3-2.2 0-3.2-1-3.2-2.2zm31.1-6.5l2.6-0.2c-0.5-3-3-5-6.1-5-3.5 0-5.9 1.9-5.9 4.9 0 3 3 3.8 5.8 4.4 1.7 0.4 3.9 0.6 3.9 2.4 0 1.6-2 2-3.4 2-2.3 0-3.7-1.1-4.1-3l-2.6 0.2c0.3 3.2 3 5.2 6.7 5.2 2.9 0 6-1.3 6-4.2 0-3.1-2.6-4.1-6.1-4.7-1.6-0.4-3.6-1-3.6-2.5 0-1.4 1.4-2.3 3.1-2.3 1.6 0 3.4 1 3.7 2.8zm7.2-8.3v3.5h-2.2v2.2h2.2v9c0 2.7 1.6 4.2 4.3 4.2h2.3v-2.2h-2.3c-1.2 0-1.8-0.7-1.8-2v-9h4.1v-2.2h-4.1v-3.5zm9.3 8l2.7 0.2c0.4-1.7 1.7-2.7 3.6-2.7 2.5 0 3.7 1.3 3.7 3.8l-4.4 0.9c-3.5 0.7-5.8 1.4-5.8 4.6 0 2.8 2.5 4.4 5.5 4.4 2.4 0 4.1-1.3 4.8-2.7 0 1.9 1.3 2.4 2.9 2.4h1.1v-2.2h-0.6c-0.7 0-1-0.3-1-1v-6.1c0-4.1-2.2-6.5-6.2-6.5-3.3 0-5.7 1.9-6.3 4.9zm2.4 6.8c0-2.1 1.8-2.2 4.1-2.6l3.6-0.7v0.2c0 3.6-2 5.3-4.5 5.3-2.2 0-3.2-1-3.2-2.2zm24.6-6.1l2.6-0.2c-0.4-3.3-3.2-5.4-6.4-5.4-4.2 0-7 3.2-7 8.1 0 4.9 2.8 8 7 8 3.3 0 6.1-2.1 6.6-5.6l-2.7-0.2c-0.3 2.2-2 3.4-3.9 3.4-2.8 0-4.4-2.1-4.4-5.6 0-3.6 1.6-5.7 4.4-5.7 1.9 0 3.5 1.2 3.8 3.2zm6-10.4v20.6h2.5v-3.9l3-3.3 4.9 7.2h3.1l-6.3-8.9 6-6.5h-3.4l-7.3 8.2v-13.4zm36.5 20.6v-15.4h-2.5v9.2c0 2.8-1.6 4.3-4 4.3-2.2 0-3.1-1.5-3.1-4.3v-9.2h-2.5v9.9c0 3.2 1.7 5.8 5.1 5.8 2 0 3.8-0.9 4.6-2.9v2.6zm13.5-10.6l2.6-0.2c-0.5-3-3.1-5-6.1-5-3.6 0-5.9 1.9-5.9 4.9 0 3 3 3.8 5.8 4.4 1.7 0.4 3.8 0.6 3.8 2.4 0 1.6-1.9 2-3.4 2-2.2 0-3.7-1.1-4-3l-2.6 0.2c0.2 3.2 3 5.2 6.6 5.2 2.9 0 6.1-1.3 6.1-4.2 0-3.1-2.6-4.1-6.1-4.7-1.6-0.4-3.6-1-3.6-2.5 0-1.4 1.3-2.3 3-2.3 1.7 0 3.4 1 3.8 2.8zm6-4.8v15.4h2.4v-15.4zm0-2.4h2.6v-2.8h-2.6zm6.7 2.4v15.4h2.5v-9.2c0-2.9 1.6-4.4 4.1-4.4 2.3 0 3.2 1.5 3.2 4.4v9.2h2.5v-9.9c0-3.3-1.7-5.9-5.2-5.9-2.1 0-3.9 1-4.7 3l-0.1-2.6zm22.3 14.5c1.9 0 3.6-1 4.4-2.6v2.5c0 2.1-1.7 3.3-4.4 3.3-1.8 0-3.2-0.9-3.8-2.3l-2.6 0.2c0.7 2.7 3.2 4.5 6.4 4.5 4.1 0 6.9-2.2 6.9-6.3v-13.8h-2.4v2.4c-0.7-1.7-2.5-2.8-4.5-2.8-4 0-6.8 3.1-6.8 7.5 0 4.4 2.8 7.4 6.8 7.4zm-4.2-7.4c0-3.1 1.7-5.1 4.3-5.1 2.7 0 4.3 2 4.3 5.1 0 3.1-1.7 5.1-4.3 5.1-2.6 0-4.3-2-4.3-5.1zm29 8.6c4.3 0 7.1-3.1 7.1-8 0-4.9-2.8-8.1-7.1-8.1-4.2 0-7 3.2-7 8.1 0 4.9 2.8 8 7 8zm-4.4-8c0-3.6 1.6-5.7 4.4-5.7 2.8 0 4.5 2.1 4.5 5.7 0 3.5-1.7 5.6-4.5 5.6-2.8 0-4.4-2.1-4.4-5.6zm15 12h2.5v-6.4c0.9 1.6 2.4 2.4 4.6 2.4 4.6 0 6.6-3.8 6.6-8 0-4.2-2-8.1-6.6-8.1-2.3 0-3.9 1-4.7 2.6l-0.1-2.2h-2.3zm2.2-12.1c0-2.8 1.3-5.6 4.4-5.6 3.2 0 4.4 2.8 4.4 5.6 0 2.9-1.2 5.7-4.4 5.7-3.1 0-4.4-2.8-4.4-5.7zm14.2 0c0 4.9 2.8 8.1 7.1 8.1 2.9 0 5.5-1.8 6.4-4.7l-2.6-0.2c-0.7 1.6-2.2 2.5-3.8 2.5-2.6 0-4.2-1.8-4.4-4.9h11.1l-0.1-1.1c-0.2-5.5-3.3-7.7-6.6-7.7-4.3 0-7.1 3.1-7.1 8zm2.7-1.4c0.4-2.6 2-4.2 4.4-4.2 1.8 0 3.5 1 4 4.2zm14.5-6.2v15.3h2.5v-9.2c0-2.8 1.6-4.3 4.1-4.3 2.3 0 3.2 1.5 3.2 4.3v9.2h2.5v-9.9c0-3.2-1.7-5.8-5.2-5.8-2.1 0-3.9 0.9-4.7 3l-0.1-2.6zm15.9 5.7v2.3h9.7v-2.3zm22.1-1l2.6-0.2c-0.5-2.9-3-4.9-6.1-4.9-3.5 0-5.9 1.9-5.9 4.8 0 3 3 3.8 5.8 4.5 1.7 0.4 3.9 0.5 3.9 2.4 0 1.5-2 2-3.4 2-2.3 0-3.8-1.2-4.1-3l-2.6 0.2c0.2 3.2 3 5.2 6.7 5.2 2.9 0 6-1.3 6-4.3 0-3.1-2.6-4-6.1-4.7-1.6-0.3-3.6-0.9-3.6-2.4 0-1.5 1.4-2.3 3-2.3 1.7 0 3.4 1 3.8 2.7zm12.7 11c4.2 0 7-3.2 7-8.1 0-4.9-2.8-8-7-8-4.3 0-7.1 3.1-7.1 8 0 4.9 2.8 8.1 7.1 8.1zm-4.5-8.1c0-3.5 1.6-5.6 4.5-5.6 2.8 0 4.4 2.1 4.4 5.6 0 3.6-1.6 5.7-4.4 5.7-2.9 0-4.5-2.1-4.5-5.7zm27 7.7v-15.3h-2.5v9.1c0 2.9-1.6 4.4-4 4.4-2.2 0-3.1-1.5-3.1-4.4v-9.1h-2.5v9.9c0 3.2 1.7 5.8 5.1 5.8 2 0 3.8-0.9 4.6-2.9v2.5zm4.6-15.3v15.3h2.5v-9.1c0-2.7 1.1-4 3.4-4h1.5v-2.2h-1.5c-2 0-3.1 0.8-3.6 2.7l-0.1-2.7zm19.9 5.1l2.6-0.1c-0.4-3.4-3.3-5.4-6.4-5.4-4.3 0-7.1 3.1-7.1 8 0 4.9 2.8 8.1 7.1 8.1 3.2 0 6-2.2 6.5-5.6l-2.6-0.2c-0.4 2.2-2 3.4-3.9 3.4-2.9 0-4.5-2.1-4.5-5.7 0-3.5 1.6-5.6 4.5-5.6 1.8 0 3.4 1.2 3.8 3.1zm5.1 2.5c0 4.9 2.8 8.1 7.1 8.1 3 0 5.6-1.8 6.5-4.7l-2.7-0.2c-0.7 1.6-2.2 2.5-3.8 2.5-2.6 0-4.2-1.8-4.4-4.9h11.1v-1.1c-0.3-5.5-3.3-7.7-6.7-7.7-4.3 0-7.1 3.1-7.1 8zm2.7-1.4c0.4-2.6 2-4.2 4.4-4.2 1.8 0 3.5 1 4 4.2zm23.5-9.7v3.5h-2.3v2.2h2.3v9c0 2.7 1.5 4.1 4.3 4.1h2.2v-2.2h-2.2c-1.2 0-1.8-0.6-1.8-1.9v-9h4.1v-2.2h-4.1v-3.5zm15.6 19.2c4.3 0 7.1-3.2 7.1-8.1 0-4.9-2.8-8-7.1-8-4.3 0-7 3.1-7 8 0 4.9 2.7 8.1 7 8.1zm-4.4-8.1c0-3.5 1.6-5.6 4.4-5.6 2.8 0 4.4 2.1 4.4 5.6 0 3.6-1.6 5.7-4.4 5.7-2.8 0-4.4-2.1-4.4-5.7zm21.2 8.1c4.3 0 7.1-3.2 7.1-8.1 0-4.9-2.8-8-7.1-8-4.2 0-7 3.1-7 8 0 4.9 2.8 8.1 7 8.1zm-4.4-8.1c0-3.5 1.6-5.6 4.4-5.6 2.8 0 4.5 2.1 4.5 5.6 0 3.6-1.7 5.7-4.5 5.7-2.8 0-4.4-2.1-4.4-5.7zm15.2-12.9v17.6c0 1.8 1.2 3 3 3h1.7v-2.2h-1.3c-0.7 0-0.9-0.3-0.9-0.9v-17.5zm16.7 10l2.6-0.2c-0.5-2.9-3-4.9-6.1-4.9-3.5 0-5.9 1.9-5.9 4.8 0 3 3 3.8 5.8 4.5 1.8 0.4 3.9 0.5 3.9 2.4 0 1.5-1.9 2-3.4 2-2.3 0-3.7-1.2-4-3l-2.7 0.2c0.3 3.2 3.1 5.2 6.7 5.2 2.9 0 6-1.3 6-4.3 0-3.1-2.6-4-6-4.7-1.7-0.3-3.7-0.9-3.7-2.4 0-1.5 1.4-2.3 3.1-2.3 1.7 0 3.4 1 3.7 2.7z"/>
</svg>